# xmcd
#
# Track frame offsets:
#	150
#	14430
#	35160
#	51030
#	64062
#	76220
#	90000
#	103812
#	113015
#	129920
#	146370
#	162075
#	173962
#	185240
#	199380
#	217240
#
# Disc length: 3097 seconds
#
# Revision: 1
# Processed by: cddbd v1.5.1PL0 Copyright (c) Steve Scherf et al.
# Submitted via: audiograbber 1.83.01
#
DISCID=df0c1710
DTITLE=Various Artist - Stars Of Country Music
DYEAR=1990
DGENRE=Country
TTITLE0=Patty Loveless - Wicked Days
TTITLE1=Conway Twitty - Red Neckin' Love Makin' Night
TTITLE2=Tanya Tucker - Dancing The Night Away
TTITLE3=Barbara Mandrell - Midnight Angel
TTITLE4=Waylon Jennings - Working Without A Net
TTITLE5=Loretta Lynn - Just A Woman
TTITLE6=Don Williams - I'm Just A Countryboy
TTITLE7=Crystal Gale - Sparkling Look Of Love
TTITLE8=Steven Wariner - Small Town Girl
TTITLE9=Reba McEntire - Only In My Mind
TTITLE10=Oak Ridge Boys - Juliet
TTITLE11=Kenny Rogers - Me And Bobby McGee
TTITLE12=Donna Fargo - The Happiest Girl In The Whole USA
TTITLE13=Glenn Campbell - The Hand That Rock's The Craddle
TTITLE14=Nanci Griffith - Lone Stars State Of Mind
TTITLE15=John Schneider - You're The Last Thing I Needed Tonight
EXTD=
EXTT0=
EXTT1=
EXTT2=
EXTT3=
EXTT4=
EXTT5=
EXTT6=
EXTT7=
EXTT8=
EXTT9=
EXTT10=
EXTT11=
EXTT12=
EXTT13=
EXTT14=
EXTT15=
PLAYORDER=
